<svg width="555" height="141" viewBox="0 0 555 141" fill="none" xmlns="http://www.w3.org/2000/svg">
<path d="M440.729 27.8999V111.324H524.235V27.8999H440.729ZM519.36 106.449H445.604V32.7747H519.36V106.449Z" fill="#383838"/>
<path d="M548.835 113.94V110.073H541.181V104.369H548.835V100.518H553.986V98.8931H548.835V95.0258H541.181V89.3223H548.835V85.4712H553.986V83.8463H548.835V79.9789H541.181V74.2754H548.835V70.4244H553.986V68.7994H548.835V64.9321H541.181V59.2286H548.835V55.3938H553.986V53.7688H548.835V49.8853H541.181V44.1818H548.835V40.3469H553.986V38.722H548.835V34.8385H541.181V29.1349H548.835V25.3001H553.986V23.6752H548.835V19.7916H541.181V13.5031H541.198V4.15981H537.412V0H535.787V4.15981H531.936V10.9358H525.81V4.15981H521.959V0H520.334V4.15981H516.483V10.9358H510.373V4.15981H506.522V0H504.897V4.15981H501.046V10.9358H494.936V4.15981H491.085V0H489.46V4.15981H485.609V10.9358H479.483V4.15981H475.632V0H474.007V4.15981H470.156V10.9358H464.03V4.15981H460.163V0H458.538V4.15981H454.703V10.9358H448.593V4.15981H444.726V0H443.101V4.15981H439.266V10.9358H433.156V4.15981H429.289V0H427.664V4.15981H423.699V10.9358V15.8106L423.813 31.9786L423.699 128.223V135.015H427.664V140.41H429.289V135.015H433.108V128.223H439.217V135.015H443.101V140.41H444.726V135.015H448.544V128.223H454.654V135.015H458.538V140.41H460.163V135.015H463.981V128.223H470.107V135.015H473.991V140.41H475.616V135.015H479.434V128.223H485.56V135.015H489.444V140.41H491.069V135.015H494.887V128.223H500.997V135.015H504.881V140.41H506.506V135.015H510.324V128.223H516.434V135.015H520.317V140.41H521.942V135.015H525.761V128.223H531.887V135.015H535.771V140.41H537.395V135.015H541.133V125.672V119.4H548.786V115.549H554.002V113.924H548.835V113.94ZM541.181 21.4491H547.21V27.5425H541.181V21.4491ZM541.181 36.4796H547.21V42.5731H541.181V36.4796ZM541.181 51.5264H547.21V57.6199H541.181V51.5264ZM541.181 66.5733H547.21V72.6668H541.181V66.5733ZM541.181 81.6201H547.21V87.7136H541.181V81.6201ZM541.181 96.6669H547.21V102.76H541.181V96.6669ZM518.091 5.81722H524.169V10.9683H518.091V5.81722ZM502.654 5.81722H508.732V10.9683H502.654V5.81722ZM487.201 5.81722H493.279V10.9683H487.201V5.81722ZM471.748 5.81722H477.826V10.9683H471.748V5.81722ZM456.295 5.81722H462.372V10.9683H456.295V5.81722ZM440.858 5.81722H446.936V10.9683H440.858V5.81722ZM425.405 5.81722H431.483V10.9683H425.405V5.81722ZM431.483 133.407H425.405V128.239H431.483V133.407ZM446.936 133.407H440.858V128.239H446.936V133.407ZM462.389 133.407H456.312V128.239H462.389V133.407ZM477.826 133.407H471.748V128.239H477.826V133.407ZM493.279 133.407H487.201V128.239H493.279V133.407ZM508.732 133.407H502.654V128.239H508.732V133.407ZM524.185 133.407H518.107V128.239H524.185V133.407ZM428.655 123.365V27.12L428.607 15.8268H536.307V123.348H428.655V123.365ZM539.638 133.407H533.561V128.239H539.638V133.407ZM539.638 10.9683H533.561V5.81722H539.638V10.9683ZM547.21 117.807H541.181V111.714H547.21V117.807Z" fill="#383838"/>
<path d="M508.228 94.7007H456.718V44.5229H508.228V94.7007ZM457.936 93.482H507.009V45.7416H457.936V93.482Z" fill="#383838"/>
<path d="M380.071 116.751V29.3138H414.146V8.271H324.97V29.3138H359.044V116.751C356.461 117.742 354.625 120.229 354.625 123.137C354.625 126.923 357.696 129.994 361.482 129.994C365.268 129.994 368.339 126.923 368.339 123.137C368.339 120.212 366.503 117.742 363.919 116.751V24.439H329.844V13.1458H409.287V24.439H375.212V116.751C372.629 117.742 370.793 120.229 370.793 123.137C370.793 126.923 373.864 129.994 377.65 129.994C381.436 129.994 384.507 126.923 384.507 123.137C384.507 120.229 382.655 117.742 380.071 116.751Z" fill="#383838"/>
<path d="M343.266 125.9H333.045V40.8346H343.266V125.9ZM334.264 124.681H342.047V42.0695H334.264V124.681Z" fill="#383838"/>
<path d="M405.338 125.9H395.117V40.8347H405.338V125.9ZM396.336 124.681H404.119V42.0696H396.336V124.681Z" fill="#383838"/>
<path d="M285.126 114.947H283.761V39.9406H208.592V115.012H207.243V38.5919H285.126V114.947Z" fill="#383838"/>
<path d="M220.584 115.451H219.365V50.2267H273.069V114.948H271.85V51.4454H220.584V115.451Z" fill="#383838"/>
<path d="M207.876 116.052C210.574 116.052 212.767 118.246 212.767 120.943C212.767 123.641 210.574 125.834 207.876 125.834C205.179 125.834 202.985 123.641 202.985 120.943C202.985 118.246 205.179 116.052 207.876 116.052ZM207.876 114.834C204.496 114.834 201.767 117.564 201.767 120.943C201.767 124.323 204.496 127.053 207.876 127.053C211.256 127.053 213.986 124.323 213.986 120.943C213.97 117.58 211.24 114.834 207.876 114.834Z" fill="#383838"/>
<path d="M219.771 116.052C222.468 116.052 224.662 118.246 224.662 120.943C224.662 123.641 222.468 125.834 219.771 125.834C217.073 125.834 214.88 123.641 214.88 120.943C214.88 118.246 217.073 116.052 219.771 116.052ZM219.771 114.834C216.391 114.834 213.661 117.564 213.661 120.943C213.661 124.323 216.391 127.053 219.771 127.053C223.151 127.053 225.881 124.323 225.881 120.943C225.881 117.58 223.134 114.834 219.771 114.834Z" fill="#383838"/>
<path d="M176.386 8.28723V125.591H196.713V23.5453H191.839V120.716H181.26V13.162H311.043V120.716H300.465V29.9313C303.049 28.9401 304.885 26.4539 304.885 23.5453C304.885 19.7592 301.814 16.6881 298.028 16.6881C294.242 16.6881 291.17 19.7592 291.17 23.5453C291.17 26.4701 293.007 28.9401 295.59 29.9313V125.591H315.918V8.28723H176.386Z" fill="#383838"/>
<path d="M285.207 23.4316H191.806V28.3064H285.207V23.4316Z" fill="#383838"/>
<path d="M272.695 116.052C275.392 116.052 277.586 118.246 277.586 120.943C277.586 123.641 275.392 125.834 272.695 125.834C269.997 125.834 267.803 123.641 267.803 120.943C267.803 118.246 269.997 116.052 272.695 116.052ZM272.695 114.834C269.315 114.834 266.585 117.564 266.585 120.943C266.585 124.323 269.315 127.053 272.695 127.053C276.074 127.053 278.804 124.323 278.804 120.943C278.804 117.58 276.074 114.834 272.695 114.834Z" fill="#383838"/>
<path d="M284.589 116.052C287.286 116.052 289.48 118.246 289.48 120.943C289.48 123.641 287.286 125.834 284.589 125.834C281.892 125.834 279.698 123.641 279.698 120.943C279.714 118.246 281.892 116.052 284.589 116.052ZM284.589 114.834C281.209 114.834 278.479 117.564 278.479 120.943C278.479 124.323 281.209 127.053 284.589 127.053C287.969 127.053 290.699 124.323 290.699 120.943C290.699 117.58 287.969 114.834 284.589 114.834Z" fill="#383838"/>
<path d="M0.0162651 29.3138H54.1263V56.4176H0.0162651V77.4604H51.2827C52.2739 80.0441 54.76 81.8802 57.6687 81.8802C61.4547 81.8802 64.5259 78.8091 64.5259 75.023C64.5259 71.237 61.4547 68.1659 57.6687 68.1659C54.7438 68.1659 52.2739 70.002 51.2827 72.5857H4.89105V61.2924H59.0011V24.439H4.89105V13.1458H70.2781V120.7H4.89105V109.406H51.2664C52.2414 112.006 54.7275 113.859 57.6687 113.859C61.4547 113.859 64.5259 110.788 64.5259 107.002C64.5259 103.216 61.4547 100.144 57.6687 100.144C54.76 100.144 52.2902 101.964 51.2827 104.532H0V125.575H75.1366V8.271H0V29.3138H0.0162651Z" fill="#383838"/>
<path d="M46.8794 47.0417H7.49121V37.9421H46.8794V47.0417ZM8.70991 45.823H45.6607V39.1608H8.70991V45.823Z" fill="#383838"/>
<path d="M46.8794 95.7895H7.49121V86.6899H46.8794V95.7895ZM8.70991 94.5709H45.6607V87.9086H8.70991V94.5709Z" fill="#383838"/>
<path d="M88.834 125.591H163.971V104.548H109.861V77.444H163.971V56.4012H112.704C111.713 53.8176 109.227 51.9814 106.318 51.9814C102.532 51.9814 99.461 55.0525 99.461 58.8386C99.461 62.6247 102.532 65.6958 106.318 65.6958C109.243 65.6958 111.713 63.8596 112.704 61.276H159.096V72.5692H104.986V109.423H159.096V120.716H93.7088V13.1619H159.096V24.4551H112.72C111.745 21.8552 109.259 20.0028 106.318 20.0028C102.532 20.0028 99.461 23.0739 99.461 26.86C99.461 30.6461 102.532 33.7172 106.318 33.7172C109.227 33.7172 111.697 31.8973 112.704 29.3299H163.987V8.28711H88.8502V125.591H88.834Z" fill="#383838"/>
<path d="M155.196 47.0417H115.808V37.9421H155.196V47.0417ZM117.026 45.823H153.977V39.1608H117.026V45.823Z" fill="#383838"/>
<path d="M155.196 95.7895H115.808V86.6899H155.196V95.7895ZM117.026 94.5709H153.977V87.9086H117.026V94.5709Z" fill="#383838"/>
</svg>
