<svg width="128" height="33" viewBox="0 0 128 33" fill="none" xmlns="http://www.w3.org/2000/svg">
<path d="M101.828 6.44629V25.7209H121.121V6.44629H101.828ZM119.995 24.5946H102.954V7.57258H119.995V24.5946Z" fill="#383838"/>
<path d="M126.805 26.3251V25.4316H125.037V24.1139H126.805V23.2241H127.996V22.8486H126.805V21.9551H125.037V20.6374H126.805V19.7476H127.996V19.3722H126.805V18.4787H125.037V17.1609H126.805V16.2711H127.996V15.8957H126.805V15.0022H125.037V13.6844H126.805V12.7984H127.996V12.423H126.805V11.5257H125.037V10.2079H126.805V9.32192H127.996V8.94649H126.805V8.04922H125.037V6.73145H126.805V5.84544H127.996V5.47001H126.805V4.57273H125.037V3.11982H125.041V0.961099H124.166V0H123.791V0.961099H122.901V2.52665H121.486V0.961099H120.596V0H120.22V0.961099H119.331V2.52665H117.919V0.961099H117.029V0H116.654V0.961099H115.764V2.52665H114.352V0.961099H113.463V0H113.087V0.961099H112.197V2.52665H110.782V0.961099H109.892V0H109.517V0.961099H108.627V2.52665H107.212V0.961099H106.318V0H105.943V0.961099H105.057V2.52665H103.645V0.961099H102.752V0H102.376V0.961099H101.49V2.52665H100.079V0.961099H99.185V0H98.8096V0.961099H97.8936V2.52665V3.65294L97.9198 7.38846L97.8936 29.6252V31.1945H98.8096V32.4409H99.185V31.1945H100.067V29.6252H101.479V31.1945H102.376V32.4409H102.752V31.1945H103.634V29.6252H105.045V31.1945H105.943V32.4409H106.318V31.1945H107.2V29.6252H108.616V31.1945H109.513V32.4409H109.889V31.1945H110.771V29.6252H112.186V31.1945H113.083V32.4409H113.459V31.1945H114.341V29.6252H115.753V31.1945H116.65V32.4409H117.025V31.1945H117.908V29.6252H119.319V31.1945H120.217V32.4409H120.592V31.1945H121.474V29.6252H122.89V31.1945H123.787V32.4409H124.162V31.1945H125.026V29.0357V27.5866H126.794V26.6968H127.999V26.3214H126.805V26.3251ZM125.037 4.95568H126.43V6.36354H125.037V4.95568ZM125.037 8.4284H126.43V9.83626H125.037V8.4284ZM125.037 11.9049H126.43V13.3127H125.037V11.9049ZM125.037 15.3814H126.43V16.7892H125.037V15.3814ZM125.037 18.8578H126.43V20.2657H125.037V18.8578ZM125.037 22.3343H126.43V23.7422H125.037V22.3343ZM119.702 1.34403H121.106V2.53415H119.702V1.34403ZM116.136 1.34403H117.54V2.53415H116.136V1.34403ZM112.565 1.34403H113.969V2.53415H112.565V1.34403ZM108.995 1.34403H110.399V2.53415H108.995V1.34403ZM105.425 1.34403H106.829V2.53415H105.425V1.34403ZM101.858 1.34403H103.262V2.53415H101.858V1.34403ZM98.2878 1.34403H99.6919V2.53415H98.2878V1.34403ZM99.6919 30.8228H98.2878V29.6289H99.6919V30.8228ZM103.262 30.8228H101.858V29.6289H103.262V30.8228ZM106.833 30.8228H105.428V29.6289H106.833V30.8228ZM110.399 30.8228H108.995V29.6289H110.399V30.8228ZM113.969 30.8228H112.565V29.6289H113.969V30.8228ZM117.54 30.8228H116.136V29.6289H117.54V30.8228ZM121.11 30.8228H119.706V29.6289H121.11V30.8228ZM99.0386 28.5026V6.26592L99.0274 3.65668H123.911V28.4989H99.0386V28.5026ZM124.68 30.8228H123.276V29.6289H124.68V30.8228ZM124.68 2.53415H123.276V1.34403H124.68V2.53415ZM126.43 27.2187H125.037V25.8108H126.43V27.2187Z" fill="#383838"/>
<path d="M117.424 21.8801H105.523V10.2869H117.424V21.8801ZM105.804 21.5986H117.142V10.5684H105.804V21.5986Z" fill="#383838"/>
<path d="M87.8128 26.9748V6.77295H95.6855V1.91113H75.0819V6.77295H82.9547V26.9748C82.3578 27.2038 81.9335 27.7782 81.9335 28.4503C81.9335 29.325 82.6431 30.0346 83.5178 30.0346C84.3926 30.0346 85.1022 29.325 85.1022 28.4503C85.1022 27.7745 84.6779 27.2038 84.081 26.9748V5.64666H76.2082V3.03742H94.563V5.64666H86.6902V26.9748C86.0933 27.2038 85.6691 27.7782 85.6691 28.4503C85.6691 29.325 86.3786 30.0346 87.2534 30.0346C88.1281 30.0346 88.8377 29.325 88.8377 28.4503C88.8377 27.7782 88.4097 27.2038 87.8128 26.9748Z" fill="#383838"/>
<path d="M79.3096 29.0886H76.9482V9.43481H79.3096V29.0886ZM77.2297 28.807H79.028V9.72013H77.2297V28.807Z" fill="#383838"/>
<path d="M93.6504 29.0886H91.289V9.43481H93.6504V29.0886ZM91.5705 28.807H93.3689V9.72013H91.5705V28.807Z" fill="#383838"/>
<path d="M65.8763 26.5579H65.5609V9.22811H48.1936V26.573H47.882V8.9165H65.8763V26.5579Z" fill="#383838"/>
<path d="M50.9643 26.6745H50.6827V11.6047H63.0907V26.5581H62.8091V11.8863H50.9643V26.6745Z" fill="#383838"/>
<path d="M48.0289 26.8133C48.6521 26.8133 49.159 27.3201 49.159 27.9433C49.159 28.5666 48.6521 29.0734 48.0289 29.0734C47.4057 29.0734 46.8989 28.5666 46.8989 27.9433C46.8989 27.3201 47.4057 26.8133 48.0289 26.8133ZM48.0289 26.5317C47.248 26.5317 46.6173 27.1625 46.6173 27.9433C46.6173 28.7242 47.248 29.355 48.0289 29.355C48.8098 29.355 49.4405 28.7242 49.4405 27.9433C49.4368 27.1662 48.8061 26.5317 48.0289 26.5317Z" fill="#383838"/>
<path d="M50.7772 26.8133C51.4004 26.8133 51.9073 27.3201 51.9073 27.9433C51.9073 28.5666 51.4004 29.0734 50.7772 29.0734C50.154 29.0734 49.6472 28.5666 49.6472 27.9433C49.6472 27.3201 50.154 26.8133 50.7772 26.8133ZM50.7772 26.5317C49.9963 26.5317 49.3656 27.1625 49.3656 27.9433C49.3656 28.7242 49.9963 29.355 50.7772 29.355C51.5581 29.355 52.1888 28.7242 52.1888 27.9433C52.1888 27.1662 51.5544 26.5317 50.7772 26.5317Z" fill="#383838"/>
<path d="M40.7531 1.91479V29.0171H45.4497V5.44007H44.3234V27.8908H41.8793V3.04108H71.8649V27.8908H69.4209V6.91552C70.0178 6.68651 70.442 6.11209 70.442 5.44007C70.442 4.56532 69.7325 3.85576 68.8577 3.85576C67.983 3.85576 67.2734 4.56532 67.2734 5.44007C67.2734 6.11585 67.6977 6.68651 68.2946 6.91552V29.0171H72.9912V1.91479H40.7531Z" fill="#383838"/>
<path d="M65.8953 5.41382H44.3156V6.54011H65.8953V5.41382Z" fill="#383838"/>
<path d="M63.0054 26.8133C63.6286 26.8133 64.1355 27.3201 64.1355 27.9433C64.1355 28.5666 63.6286 29.0734 63.0054 29.0734C62.3822 29.0734 61.8754 28.5666 61.8754 27.9433C61.8754 27.3201 62.3822 26.8133 63.0054 26.8133ZM63.0054 26.5317C62.2245 26.5317 61.5938 27.1625 61.5938 27.9433C61.5938 28.7242 62.2245 29.355 63.0054 29.355C63.7863 29.355 64.4171 28.7242 64.4171 27.9433C64.4171 27.1662 63.7863 26.5317 63.0054 26.5317Z" fill="#383838"/>
<path d="M65.7537 26.8133C66.3769 26.8133 66.8838 27.3201 66.8838 27.9433C66.8838 28.5666 66.3769 29.0734 65.7537 29.0734C65.1305 29.0734 64.6237 28.5666 64.6237 27.9433C64.6274 27.3201 65.1305 26.8133 65.7537 26.8133ZM65.7537 26.5317C64.9728 26.5317 64.3421 27.1625 64.3421 27.9433C64.3421 28.7242 64.9728 29.355 65.7537 29.355C66.5346 29.355 67.1653 28.7242 67.1653 27.9433C67.1653 27.1662 66.5346 26.5317 65.7537 26.5317Z" fill="#383838"/>
<path d="M0.00375796 6.77271H12.5056V13.0349H0.00375796V17.8967H11.8486C12.0776 18.4936 12.652 18.9179 13.324 18.9179C14.1988 18.9179 14.9083 18.2083 14.9083 17.3336C14.9083 16.4588 14.1988 15.7492 13.324 15.7492C12.6482 15.7492 12.0776 16.1735 11.8486 16.7704H1.13005V14.1612H13.6319V5.64642H1.13005V3.03718H16.2373V27.8869H1.13005V25.2776H11.8448C12.0701 25.8783 12.6445 26.3063 13.324 26.3063C14.1988 26.3063 14.9083 25.5968 14.9083 24.722C14.9083 23.8473 14.1988 23.1377 13.324 23.1377C12.652 23.1377 12.0813 23.5582 11.8486 24.1513H0V29.0132H17.3599V1.91089H0V6.77271H0.00375796Z" fill="#383838"/>
<path d="M10.8309 10.8685H1.73047V8.76611H10.8309V10.8685ZM2.01204 10.5869H10.5493V9.04769H2.01204V10.5869Z" fill="#383838"/>
<path d="M10.8309 22.1317H1.73047V20.0293H10.8309V22.1317ZM2.01204 21.8501H10.5493V20.3109H2.01204V21.8501Z" fill="#383838"/>
<path d="M20.5253 29.0171H37.8851V24.1553H25.3833V17.8931H37.8851V13.0313H26.0403C25.8113 12.4343 25.2369 12.0101 24.5649 12.0101C23.6901 12.0101 22.9806 12.7197 22.9806 13.5944C22.9806 14.4692 23.6901 15.1787 24.5649 15.1787C25.2407 15.1787 25.8113 14.7545 26.0403 14.1576H36.7589V16.7668H24.257V25.2815H36.7589V27.8908H21.6516V3.04108H36.7589V5.65031H26.0441C25.8188 5.04963 25.2444 4.62164 24.5649 4.62164C23.6901 4.62164 22.9806 5.3312 22.9806 6.20595C22.9806 7.08071 23.6901 7.79027 24.5649 7.79027C25.2369 7.79027 25.8076 7.36978 26.0403 6.7766H37.8889V1.91479H20.529V29.0171H20.5253Z" fill="#383838"/>
<path d="M35.8582 10.8688H26.7578V8.76636H35.8582V10.8688ZM27.0393 10.5872H35.5766V9.04793H27.0393V10.5872Z" fill="#383838"/>
<path d="M35.8582 22.1317H26.7578V20.0293H35.8582V22.1317ZM27.0393 21.8501H35.5766V20.3109H27.0393V21.8501Z" fill="#383838"/>
</svg>
